<svg xmlns="http://www.w3.org/2000/svg" width="86" height="86" viewBox="0 0 86 86">
    <g fill="none" fill-rule="evenodd">
        <circle cx="42.875" cy="42.875" r="42.875" fill="#F1F3F5"/>
        <path fill="#68BE66" d="M41.754 25.665a1 1 0 0 1 1.413.053l16.211 17.471a1 1 0 0 1-.733 1.68h-4.404l.001 11.763a1 1 0 0 1-1 1h-21.93a1 1 0 0 1-1-1V44.87h-4.09a1 1 0 0 1-.583-.188l-.097-.08a1 1 0 0 1-.053-1.413l16.212-17.471a1 1 0 0 1 .053-.053z" opacity=".76"/>
        <path fill="#FFF" fill-rule="nonzero" d="M39.746 50.328H37.89l6.896-11.52h1.84l-6.88 11.52zm-1.152-11.744c1.68 0 2.736 1.072 2.736 2.752v.624c0 1.68-1.056 2.752-2.736 2.752-1.68 0-2.736-1.072-2.736-2.752v-.624c0-1.68 1.056-2.752 2.736-2.752zm0 4.768c.896 0 1.152-.56 1.152-1.424v-.56c0-.848-.256-1.424-1.152-1.424-.896 0-1.152.576-1.152 1.424v.56c0 .864.256 1.424 1.152 1.424zm7.344.992c1.68 0 2.736 1.072 2.736 2.752v.624c0 1.68-1.056 2.752-2.736 2.752-1.68 0-2.736-1.072-2.736-2.752v-.624c0-1.68 1.056-2.752 2.736-2.752zm0 4.768c.896 0 1.152-.56 1.152-1.424v-.56c0-.848-.256-1.424-1.152-1.424-.896 0-1.152.576-1.152 1.424v.56c0 .864.256 1.424 1.152 1.424z"/>
    </g>
</svg>