<svg xmlns="http://www.w3.org/2000/svg" width="86" height="86" viewBox="0 0 86 86">
    <g fill="none" fill-rule="evenodd">
        <circle cx="43" cy="43" r="43" fill="#F1F3F5"/>
        <g transform="translate(29 25)">
            <path fill="#505861" fill-rule="nonzero" d="M14 38c7.694 0 14-2.425 14-6s-6.306-6-14-6-14 2.425-14 6 6.306 6 14 6z"/>
            <path fill="#FF5A5A" d="M14 0c7.18 0 13 5.82 13 13 0 3.52-1.399 6.712-3.67 9.053L14 33 4.522 21.898A12.955 12.955 0 0 1 1 13C1 5.82 6.82 0 14 0z"/>
            <circle cx="14" cy="13" r="6" fill="#FFF"/>
        </g>
    </g>
</svg>